<?xml version="1.0" encoding="UTF-8" standalone="no"?>
<!-- Created with Inkscape (http://www.inkscape.org/) -->

<svg
   width="107.48181mm"
   height="130.05356mm"
   viewBox="0 0 107.48181 130.05356"
   version="1.1"
   id="svg1"
   xml:space="preserve"
   xmlns="http://www.w3.org/2000/svg"
   xmlns:svg="http://www.w3.org/2000/svg"><defs
     id="defs1" /><g
     id="layer2"
     style="display:inline;fill:#000000;fill-opacity:0.5;stroke-width:0;stroke-dasharray:none"
     transform="matrix(2.5933227,0,0,2.5933227,-159.05409,-121.1497)"><path
       id="path13"
       style="fill:#000000;fill-opacity:1;stroke:#000000;stroke-width:0;stroke-linecap:round;stroke-linejoin:round;stroke-dasharray:none"
       d="M 82.054366,46.716012 61.334755,60.177711 h -0.0026 v 0.0016 29.84924 c -3.7e-5,2.794662 2.265531,5.060229 5.060193,5.060193 h 0.382793 5.97e-4 c 0.575167,-2.84e-4 1.041373,-0.466601 1.041371,-1.041769 2e-6,-0.575168 -0.466204,-1.041485 -1.041371,-1.041769 h -5.97e-4 -0.125539 v -5.98e-4 c -1.836845,8e-6 -3.325778,-1.489125 -3.32577,-3.32597 -8e-6,-1.836845 1.488925,-3.325778 3.32577,-3.32577 0.0067,1.52e-4 0.01342,2.06e-4 0.02013,3.98e-4 H 75.8175 v -9.96e-4 c 0.583792,-0.0054 1.054321,-0.480071 1.054323,-1.063888 -1.09e-4,-0.0231 -9.46e-4,-0.0463 -0.0026,-0.06934 h 10.235961 c -0.0025,0.02371 -0.0042,0.04752 -0.0052,0.07134 2.7e-5,0.58763 0.476457,1.064061 1.064087,1.064088 0.0048,-3.12e-4 0.0095,-6.87e-4 0.01435,-9.97e-4 H 102.76381 V 60.179305 h 0.0139 z M 62.73939,70.198862 h 2.790538 l 5.498382,9.337465 v -5.824981 c 0,-0.713384 -0.03669,-1.260065 -0.110195,-1.63977 -0.0735,-0.385458 -0.17943,-0.641407 -0.317233,-0.767976 -0.128616,-0.109309 -0.339688,-0.21567 -0.63367,-0.319226 -0.289388,-0.103556 -0.509783,-0.161259 -0.661368,-0.172765 v -0.612747 h 3.975382 v 0.612747 c -0.128617,0.0057 -0.326199,0.05179 -0.592621,0.138092 -0.266419,0.0863 -0.456663,0.175566 -0.571499,0.267616 -0.165364,0.143828 -0.278242,0.419882 -0.337957,0.828354 -0.05512,0.408469 -0.0827,0.926399 -0.0827,1.553488 v 8.966429 H 71.096858 L 65.171646,72.54643 v 6.316971 c 0,0.707632 0.03452,1.251297 0.10342,1.631003 0.07349,0.379705 0.183791,0.650129 0.330783,0.811217 0.105648,0.126566 0.323466,0.244192 0.654195,0.3535 0.330729,0.109311 0.549142,0.166813 0.654792,0.172566 v 0.612946 h -4.010055 v -0.612946 c 0.124023,-0.01151 0.332714,-0.066 0.626696,-0.163798 0.293982,-0.103556 0.477879,-0.19544 0.551373,-0.275985 0.160772,-0.161085 0.271069,-0.405774 0.330783,-0.733702 0.05971,-0.333679 0.08947,-0.900467 0.08947,-1.700149 v -6.032218 c 0,-0.264641 -0.0367,-0.529237 -0.110195,-0.793881 -0.0735,-0.264641 -0.172087,-0.468918 -0.296111,-0.612747 -0.165363,-0.189852 -0.390521,-0.350901 -0.675317,-0.483223 -0.280201,-0.138075 -0.50754,-0.212869 -0.682091,-0.224375 z m 37.3377,3.486579 h 0.49618 l 0.10322,2.735741 h -0.47545 c -0.0965,-0.609828 -0.305155,-1.105035 -0.626698,-1.484741 -0.316948,-0.385458 -0.704973,-0.577675 -1.164318,-0.577675 -0.376665,0 -0.673039,0.117622 -0.888932,0.3535 -0.215893,0.235875 -0.324008,0.520976 -0.324008,0.854657 0,0.258889 0.03452,0.474427 0.103419,0.647021 0.0735,0.172593 0.181612,0.319563 0.324009,0.44038 0.137804,0.115061 0.309996,0.22404 0.5167,0.327596 0.2113,0.0978 0.470577,0.209796 0.778338,0.336363 0.303169,0.120816 0.588237,0.262156 0.854657,0.423244 0.271023,0.161086 0.493593,0.339227 0.668143,0.534833 0.18833,0.207112 0.33314,0.445773 0.4342,0.716167 0.10105,0.270397 0.15145,0.601538 0.15145,0.992749 0,0.788176 -0.23646,1.432174 -0.70959,1.932693 -0.468533,0.500522 -1.076959,0.750839 -1.825691,0.750839 -0.395039,0 -0.760249,-0.08927 -1.095571,-0.267616 -0.330729,-0.178346 -0.567592,-0.341811 -0.709989,-0.491393 l -0.137495,0.560539 h -0.5167 l -0.06935,-2.959916 h 0.475452 c 0.03675,0.224373 0.115108,0.486352 0.234538,0.785512 0.119429,0.299163 0.264245,0.569586 0.434203,0.811217 0.179146,0.253136 0.392597,0.46566 0.640644,0.638253 0.25264,0.172593 0.535328,0.258848 0.847683,0.258848 0.440972,0 0.780593,-0.123652 1.019452,-0.371036 0.238861,-0.253136 0.358083,-0.612431 0.358083,-1.078434 0,-0.241631 -0.03868,-0.44912 -0.116771,-0.621714 -0.07349,-0.178346 -0.183592,-0.333168 -0.330584,-0.465488 -0.151584,-0.132322 -0.337662,-0.250542 -0.558148,-0.354098 -0.220486,-0.109308 -0.466474,-0.21567 -0.737488,-0.319226 -0.215893,-0.08055 -0.45712,-0.18972 -0.723539,-0.327795 -0.261829,-0.143827 -0.486987,-0.310908 -0.675317,-0.500759 -0.202114,-0.20136 -0.36756,-0.448663 -0.496176,-0.742071 -0.128618,-0.29341 -0.192691,-0.638628 -0.192691,-1.035592 0,-0.696126 0.206708,-1.286032 0.62012,-1.769294 0.413411,-0.483261 0.966681,-0.724536 1.660294,-0.724536 0.266419,0 0.537801,0.04282 0.813409,0.129125 0.280201,0.08629 0.507539,0.189842 0.682092,0.310658 z m -23.075146,0.0088 c 0.496094,0 0.921217,0.09792 1.274912,0.293521 0.353697,0.195604 0.640548,0.463214 0.861034,0.802648 0.2113,0.322173 0.367622,0.701576 0.468677,1.138813 0.10565,0.437235 0.158616,0.911737 0.158616,1.423764 v 0.569506 h -4.499455 c 0,0.558052 0.04126,1.064718 0.123945,1.519214 0.08728,0.454495 0.222965,0.854203 0.406704,1.19939 0.179144,0.333681 0.413427,0.598076 0.702816,0.793681 0.289387,0.189853 0.633969,0.284753 1.033599,0.284753 0.408818,0 0.760142,-0.117423 1.054124,-0.353301 0.298574,-0.241631 0.585426,-0.673303 0.861034,-1.294639 l 0.482625,0.371035 c -0.284794,0.678868 -0.666472,1.219519 -1.144192,1.622235 -0.477721,0.402719 -1.02623,0.603979 -1.646347,0.603979 -0.546622,0 -1.026893,-0.120637 -1.440303,-0.362268 -0.408818,-0.241631 -0.746455,-0.569558 -1.012876,-0.983782 -0.266419,-0.414224 -0.466185,-0.89737 -0.599396,-1.449669 -0.128617,-0.552299 -0.192691,-1.136178 -0.192691,-1.751759 0,-0.552299 0.06883,-1.093348 0.20664,-1.622633 0.142397,-0.535041 0.349106,-1.01557 0.62012,-1.4413 0.261828,-0.408471 0.585578,-0.736001 0.971427,-0.983384 0.390444,-0.253137 0.826673,-0.379804 1.308987,-0.379804 z m 12.850547,0.137893 0.10322,0.120955 v 5.911264 c 0,0.615583 0.110298,1.078424 0.330784,1.389092 0.220486,0.310668 0.484326,0.466086 0.792087,0.466086 0.25264,0 0.477998,-0.04886 0.675516,-0.146661 0.197519,-0.0978 0.362965,-0.212809 0.496176,-0.345131 0.124024,-0.120814 0.231542,-0.247082 0.323411,-0.379404 0.09646,-0.138075 0.17006,-0.264742 0.220588,-0.379804 V 75.64447 c 0,-0.189851 -0.03233,-0.356932 -0.09664,-0.500759 -0.06431,-0.14958 -0.153774,-0.276247 -0.268612,-0.379803 -0.08268,-0.06904 -0.206669,-0.10885 -0.372032,-0.120358 -0.160771,-0.01725 -0.342085,-0.03193 -0.544199,-0.04344 v -0.56077 l 2.46653,-0.207238 0.10322,0.120955 v 6.756755 c 0,0.195607 0.03233,0.362683 0.09664,0.500758 0.06431,0.138075 0.153976,0.256096 0.268812,0.353899 0.08268,0.06328 0.181275,0.106311 0.296111,0.129325 0.114836,0.01725 0.241401,0.02871 0.379205,0.03447 v 0.560738 l -2.211667,0.1903 -0.10342,-0.120955 v -1.078634 h -0.04125 c -0.110243,0.143828 -0.234228,0.298847 -0.372032,0.465688 -0.137804,0.161088 -0.296306,0.308058 -0.475452,0.44038 -0.206705,0.155333 -0.40647,0.273356 -0.599396,0.353899 -0.192925,0.08055 -0.466487,0.120358 -0.820184,0.120358 -0.601742,0 -1.061182,-0.24429 -1.378132,-0.733304 C 88.809423,81.431968 88.6535,80.715795 88.6535,79.778038 v -4.073023 c 0,-0.207112 -0.03233,-0.37982 -0.09664,-0.517895 -0.05972,-0.143827 -0.149183,-0.26748 -0.268612,-0.371036 -0.08268,-0.06904 -0.186037,-0.117895 -0.31006,-0.146661 -0.124024,-0.03452 -0.254953,-0.05783 -0.392756,-0.06934 V 74.03934 Z m -9.439888,0.10342 h 2.95593 v 0.569506 c -0.146992,0 -0.291607,0.01166 -0.434004,0.03467 -0.142397,0.02301 -0.213415,0.07488 -0.213415,0.155429 0,0.05178 0.01369,0.109479 0.04125,0.172764 0.02756,0.06328 0.06208,0.132247 0.10342,0.207039 0.101055,0.195604 0.25678,0.497597 0.468079,0.906068 0.215893,0.408471 0.448193,0.839945 0.69624,1.294441 0.16077,-0.27615 0.346649,-0.598247 0.557948,-0.966447 0.215893,-0.368197 0.413676,-0.719446 0.59282,-1.053127 0.01838,-0.04027 0.03643,-0.08913 0.0548,-0.146661 0.01837,-0.06328 0.0279,-0.123405 0.0279,-0.180935 0,-0.120816 -0.08055,-0.215716 -0.241313,-0.284753 -0.156177,-0.07479 -0.305755,-0.126861 -0.448152,-0.155627 v -0.552369 h 2.508377 v 0.535431 c -0.353697,0.115061 -0.629242,0.25279 -0.82676,0.413878 -0.197519,0.155333 -0.365546,0.336489 -0.503349,0.543601 -0.151586,0.235878 -0.332901,0.526609 -0.544199,0.871795 -0.206707,0.345187 -0.498122,0.828134 -0.874784,1.44947 0.418004,0.736398 0.757824,1.340581 1.019651,1.812335 0.261828,0.471756 0.525668,0.958317 0.792087,1.458836 0.133211,0.253139 0.280606,0.454598 0.441377,0.604178 0.165365,0.143827 0.390125,0.227068 0.674919,0.250081 v 0.569506 H 84.14727 v -0.569506 c 0.206706,-0.02877 0.381078,-0.05751 0.523475,-0.08628 0.14699,-0.02877 0.220788,-0.10356 0.220788,-0.224375 0,-0.05178 -0.0234,-0.132403 -0.06934,-0.241711 -0.04594,-0.109309 -0.09155,-0.209839 -0.137494,-0.30189 -0.114836,-0.22437 -0.27334,-0.523548 -0.475452,-0.8975 -0.197518,-0.379706 -0.441324,-0.831485 -0.730713,-1.355017 -0.238858,0.373952 -0.459256,0.739278 -0.661368,1.09597 -0.202113,0.350939 -0.412985,0.724909 -0.633471,1.121875 -0.03215,0.05753 -0.06668,0.129309 -0.10342,0.215607 -0.03215,0.08629 -0.04862,0.155459 -0.04862,0.207238 0,0.126567 0.06468,0.232928 0.193289,0.319226 0.133211,0.08054 0.330395,0.135231 0.592223,0.163997 v 0.552369 h -2.514554 v -0.534834 c 0.312355,-0.115061 0.562506,-0.253388 0.750839,-0.414476 0.192925,-0.166838 0.369878,-0.371316 0.530649,-0.612946 0.142397,-0.230126 0.339582,-0.54659 0.592222,-0.949309 0.257234,-0.402716 0.587927,-0.948799 0.992152,-1.639172 C 82.934203,77.873919 82.647551,77.36162 82.307634,76.757545 81.972311,76.147714 81.693988,75.641646 81.473502,75.238929 81.354073,75.02031 81.2164,74.844585 81.060221,74.712266 80.908638,74.574191 80.692804,74.505028 80.412603,74.505028 Z m -3.424608,0.405708 c -0.482313,0 -0.884026,0.253333 -1.205567,0.759607 -0.316949,0.50052 -0.489139,1.199604 -0.5167,2.097089 h 3.141847 c 0,-0.322174 -0.02282,-0.667392 -0.06875,-1.035592 -0.04134,-0.368197 -0.110178,-0.676021 -0.20664,-0.923405 -0.10565,-0.264644 -0.250265,-0.480779 -0.434004,-0.647619 -0.183737,-0.166841 -0.420802,-0.25008 -0.710189,-0.25008 z M 66.234338,88.064368 a 0.99054003,0.99054003 0 0 0 -0.990159,0.990358 0.99054003,0.99054003 0 0 0 0.990159,0.990159 h 34.509702 a 0.99054003,0.99054003 0 0 0 0.99036,-0.990159 0.99054003,0.99054003 0 0 0 -0.99036,-0.990358 z m 2.763837,2.931022 a 0.57030114,0.57030114 0 0 0 -0.570303,0.570303 v 5.298118 l 0.781327,-0.701819 1.309983,-1.177072 1.310581,1.177072 0.782921,0.703413 h 9.96e-4 v -5.32741 A 0.54259914,0.54259914 0 0 0 72.071076,90.99539 Z m 5.937368,0.692055 a 0.99168003,0.99168003 0 0 0 -0.992152,0.992152 0.99168003,0.99168003 0 0 0 0.992152,0.990359 h 25.804707 a 0.99168003,0.99168003 0 0 0 0.99216,-0.990359 0.99168003,0.99168003 0 0 0 -0.99216,-0.992152 z" /></g></svg>
